<?xml version="1.0" encoding="UTF-8"?>
<svg version="1.1" xmlns="http://www.w3.org/2000/svg" width="691" height="361">
<path d="M0 0 C8.85049489 -0.07007136 17.70089163 -0.12309715 26.55160522 -0.15543652 C30.66308518 -0.17097197 34.77437285 -0.19198305 38.88574219 -0.22631836 C42.86692138 -0.25935143 46.84791778 -0.27694362 50.82922363 -0.28463173 C52.33437979 -0.29009764 53.83952802 -0.30076603 55.34460449 -0.31719017 C71.22750042 -0.48333036 88.01536777 0.28169294 100 12 C106.37002812 19.60060174 108.47177336 29.50270182 107.875 39.25 C106.58028601 49.39415089 103.99921818 55.34247659 96 62 C95.01 62.495 95.01 62.495 94 63 C96.64 64.32 99.28 65.64 102 67 C102 67.66 102 68.32 102 69 C103.485 69.495 103.485 69.495 105 70 C105.66666667 71.66666667 106.33333333 73.33333333 107 75 C108.485 75.495 108.485 75.495 110 76 C111.16796875 78.625 111.16796875 78.625 112.1875 82 C112.53167969 83.093125 112.87585938 84.18625 113.23046875 85.3125 C115.1325726 94.42714991 113.39334048 101.10401745 110 109.6875 C109.45666016 111.19666992 109.45666016 111.19666992 108.90234375 112.73632812 C106.24587872 119.56659499 103.31686306 123.28696418 97 127 C96.113125 127.556875 95.22625 128.11375 94.3125 128.6875 C82.17373417 133.49719967 70.32152181 133.40218591 57.48046875 133.29296875 C55.52607044 133.28736157 53.57166786 133.28309678 51.61726379 133.28010559 C46.51602178 133.26874512 41.41504303 133.23935539 36.31390381 133.20599365 C31.09146687 133.17510131 25.86898668 133.16155961 20.64648438 133.14648438 C10.43087501 133.11447585 0.21545954 133.06338816 -10 133 C-10.13949438 119.29085461 -10.2458717 105.58188022 -10.31087303 91.87216759 C-10.3420827 85.50501675 -10.38436644 79.13835424 -10.45263672 72.77148438 C-10.51819815 66.61819333 -10.55378384 60.46536971 -10.56926346 54.31175613 C-10.58028392 51.9731575 -10.6018033 49.63458223 -10.63438034 47.29618454 C-10.81315047 33.9227336 -10.34022016 23.88312137 -4 12 C-3.07962068 9.31195732 -2.29127237 6.62986976 -1.54296875 3.890625 C-1 2 -1 2 0 0 Z M29 31 C29 37.27 29 43.54 29 50 C33.73281335 50.06907349 38.46386056 50.12874284 43.19677734 50.16479492 C44.80491072 50.17983176 46.41300344 50.20026672 48.02099609 50.22631836 C50.33962064 50.26292822 52.65770049 50.27977722 54.9765625 50.29296875 C56.04567368 50.31619453 56.04567368 50.31619453 57.13638306 50.33988953 C61.82782431 50.34145225 65.02903171 49.50504477 69 47 C70.2851178 44.05470857 70.25181838 41.18410348 70 38 C68.43818681 34.329739 67.34089404 33.2272627 64 31 C61.31405085 30.82837975 58.73455099 30.76775448 56.05078125 30.8046875 C55.27816452 30.8075174 54.50554779 30.81034729 53.70951843 30.81326294 C51.24368757 30.82445122 48.77822094 30.84955297 46.3125 30.875 C44.63997921 30.88503157 42.96745272 30.89415711 41.29492188 30.90234375 C37.19636162 30.922684 33.09858815 30.96183415 29 31 Z M29 81 C29 87.93 29 94.86 29 102 C34.58929131 102.16108205 40.17048681 102.30026574 45.76025391 102.38452148 C47.65962045 102.41964698 49.55879874 102.46736031 51.45751953 102.52807617 C54.19350637 102.61335182 56.92698578 102.65276453 59.6640625 102.68359375 C60.50804596 102.71972275 61.35202942 102.75585175 62.22158813 102.79307556 C65.72680392 102.79539105 68.0574696 102.72665111 70.89080811 100.54226685 C73.71345578 97.43004071 75.38074232 95.08744431 75.625 90.8125 C75.29439617 87.04571189 75.29439617 87.04571189 73.3125 84.625 C68.17809087 81.01703683 63.56055628 80.72376165 57.41796875 80.8046875 C56.19670036 80.80893234 56.19670036 80.80893234 54.95075989 80.81326294 C52.362854 80.82441416 49.77530042 80.84950917 47.1875 80.875 C45.42773939 80.88503635 43.66797333 80.89416106 41.90820312 80.90234375 C37.60522543 80.92263125 33.30300482 80.96178881 29 81 Z " fill="#4B68DD" transform="translate(290,114)"/>
<path d="M0 0 C6.70566652 2.98029623 10.94216576 7.41308994 14 14 C17.59015581 24.56334307 18.01504729 35.31752043 14.15625 45.890625 C11.6907115 50.38856686 7.61530369 54.69234816 3 57 C5.64 58.32 8.28 59.64 11 61 C11 61.66 11 62.32 11 63 C11.99 63.33 12.98 63.66 14 64 C14.66666667 65.66666667 15.33333333 67.33333333 16 69 C17.485 69.495 17.485 69.495 19 70 C20.16796875 72.625 20.16796875 72.625 21.1875 76 C21.53167969 77.093125 21.87585938 78.18625 22.23046875 79.3125 C24.1325726 88.42714991 22.39334048 95.10401745 19 103.6875 C18.45666016 105.19666992 18.45666016 105.19666992 17.90234375 106.73632812 C15.23786911 113.58718918 12.30517292 117.25135705 6 121 C4.515 121.99 4.515 121.99 3 123 C2.01 122.67 1.02 122.34 0 122 C0.66 122 1.32 122 2 122 C3.10474754 119.93780459 3.95984158 118.26504558 4.3125 115.9375 C5 114 5 114 7.4375 112.75 C10.32018558 110.78133668 10.5291117 110.17521038 11.375 106.9375 C12.35558194 103.22624622 12.35558194 103.22624622 11 101 C11.66 101 12.32 101 13 101 C13 99.35 13 97.7 13 96 C14.65 96.33 16.3 96.66 18 97 C19.07090792 93.49598928 19.16638464 90.21545784 19.1875 86.5625 C19.20167969 85.45003906 19.21585937 84.33757812 19.23046875 83.19140625 C18.94683292 79.26377105 18.23926157 76.39805275 15.59765625 73.41796875 C12.2289178 70.61280976 12.2289178 70.61280976 8 70 C7.690625 68.8553125 7.690625 68.8553125 7.375 67.6875 C5.57929296 64.17770897 3.56863688 63.47400219 0 62 C0.65482056 57.52539286 1.40032715 53.23913305 3 49 C5.4375 47.25 5.4375 47.25 8 46 C9.75149165 44.41754725 9.75149165 44.41754725 11 43 C10.34 42.67 9.68 42.34 9 42 C9 40.02 9 38.04 9 36 C9.66 36 10.32 36 11 36 C11 31.38 11 26.76 11 22 C11.66 22 12.32 22 13 22 C12.67 20.68 12.34 19.36 12 18 C11.01 18.33 10.02 18.66 9 19 C8.566875 18.05125 8.13375 17.1025 7.6875 16.125 C6.20697799 12.79958063 6.20697799 12.79958063 3 11 C1.56086078 7.40215196 0.67244418 3.81051702 0 0 Z " fill="#259DCF" transform="translate(381,120)"/>
<path d="M0 0 C9.57 0 19.14 0 29 0 C26 2 26 2 22.8125 1.625 C21.884375 1.41875 20.95625 1.2125 20 1 C19.67 1.66 19.34 2.32 19 3 C18.4225 2.814375 17.845 2.62875 17.25 2.4375 C14.79307475 1.95976454 13.35602466 2.24270636 11 3 C11 2.34 11 1.68 11 1 C7.78970286 2.10699901 6.99031023 3.01603825 5.1875 6 C4.795625 6.99 4.40375 7.98 4 9 C4.33 9.66 4.66 10.32 5 11 C4.67 11.66 4.34 12.32 4 13 C1.69 13 -0.62 13 -3 13 C-3.66 15.97 -4.32 18.94 -5 22 C-4.34 22 -3.68 22 -3 22 C-3 22.99 -3 23.98 -3 25 C-3.66 25.33 -4.32 25.66 -5 26 C-4.34 26.66 -3.68 27.32 -3 28 C-4.32 28.33 -5.64 28.66 -7 29 C-7.33 45.17 -7.66 61.34 -8 78 C-7.34 78 -6.68 78 -6 78 C-5.95745644 79.99954746 -5.95919217 82.00041636 -6 84 C-6.495 84.495 -6.495 84.495 -7 85 C-7.10068807 87.59419854 -7.1387005 90.15603802 -7.125 92.75 C-7.12886719 93.46671875 -7.13273437 94.1834375 -7.13671875 94.921875 C-7.12966199 98.76075157 -6.76355017 102.25166281 -6 106 C-6.495 106.99 -6.495 106.99 -7 108 C-7.23274209 110.87910588 -7.41972757 113.74146495 -7.5625 116.625 C-7.60568359 117.42679687 -7.64886719 118.22859375 -7.69335938 119.0546875 C-7.79951457 121.0362511 -7.90026855 123.01810271 -8 125 C-7.34 125.33 -6.68 125.66 -6 126 C-5.60965576 126.5050708 -5.21931152 127.0101416 -4.81713867 127.53051758 C-2.01282003 129.798312 0.51981611 129.43917992 4.07421875 129.51171875 C4.7580513 129.52966995 5.44188385 129.54762115 6.1464386 129.56611633 C8.32673 129.62022075 10.50680256 129.6541134 12.6875 129.6875 C14.16734817 129.7206732 15.64716745 129.75516287 17.12695312 129.79101562 C20.75109169 129.87594524 24.37530652 129.94275635 28 130 C28 130.33 28 130.66 28 131 C15.46 131 2.92 131 -10 131 C-10.11316641 116.97815894 -10.20481227 102.95662346 -10.25906086 88.93442822 C-10.28510345 82.42266497 -10.32040493 75.91123162 -10.37719727 69.3996582 C-10.43170592 63.11023549 -10.46146066 56.8211292 -10.47438622 50.53148842 C-10.48359217 48.13740372 -10.50156911 45.74333544 -10.52865028 43.34938622 C-10.56518982 39.98409596 -10.56993476 36.62009682 -10.56762695 33.25463867 C-10.58560333 32.27495621 -10.60357971 31.29527374 -10.62210083 30.28590393 C-10.57452399 23.83281134 -9.13145357 19.16871342 -6.20196819 13.41951466 C-4.66958888 10.33489542 -3.8155096 7.33617563 -3 4 C-2.34 4 -1.68 4 -1 4 C-0.67 2.68 -0.34 1.36 0 0 Z " fill="#6C3ED0" transform="translate(291,115)"/>
<path d="M0 0 C2.97 0 5.94 0 9 0 C7.80515269 6.9301144 5.44674237 12.79863204 2.58984375 19.2109375 C0.36376516 24.34887269 -1.25964376 29.67432196 -2.921875 35.015625 C-4 38 -4 38 -6 40 C-8.68839385 40.26991906 -11.29141936 40.08737357 -14 40 C-11.64034503 29.82557374 -7.79917285 20.28153601 -3.29296875 10.8984375 C-1.68372495 7.29100881 -0.75823334 3.86699006 0 0 Z " fill="#7050D5" transform="translate(279,105)"/>
<path d="M0 0 C0.99 0.33 1.98 0.66 3 1 C3.88082902 6.02072539 3.88082902 6.02072539 3 9 C-0.03482835 11.84847924 -3.3948848 13.93993417 -7 16 C-4.93447977 18.21805096 -2.92219512 19.67201667 -0.3125 21.1875 C1.95286518 22.7389896 2.86711015 23.38366603 3.453125 26.1015625 C3.4375 28.3125 3.4375 28.3125 3 32 C-1.95792663 30.97118123 -5.92538214 28.41571299 -10.25 25.875 C-11.09046875 25.41351563 -11.9309375 24.95203125 -12.796875 24.4765625 C-15.09493194 23.11861976 -17.07853845 21.85389116 -19 20 C-19.79296875 16.32421875 -19.79296875 16.32421875 -19 13 C-17.34765625 11.21484375 -17.34765625 11.21484375 -15.0625 9.9375 C-14.24910156 9.45796875 -13.43570313 8.9784375 -12.59765625 8.484375 C-11.74042969 7.99453125 -10.88320312 7.5046875 -10 7 C-8.3248574 5.90873511 -6.65771519 4.8050608 -5 3.6875 C-4.2575 3.19636719 -3.515 2.70523438 -2.75 2.19921875 C-1.05558645 1.11678011 -1.05558645 1.11678011 0 0 Z " fill="#936BDD" transform="translate(261,109)"/>
<path d="M0 0 C2.05078125 0.03255208 4.1015625 0.06510417 6.15234375 0.09765625 C5.4043081 4.98941572 3.64392133 9.43054807 1.90234375 14.03515625 C-0.79093594 21.17477645 -0.79093594 21.17477645 -3.28125 28.38671875 C-3.69503906 29.63195312 -4.10882813 30.8771875 -4.53515625 32.16015625 C-4.88964844 33.26488281 -5.24414062 34.36960938 -5.609375 35.5078125 C-6.84765625 38.09765625 -6.84765625 38.09765625 -8.8203125 39.4921875 C-11.44704718 40.2766651 -13.23914413 39.82224295 -15.84765625 39.09765625 C-15.29824431 34.02367536 -14.13755527 29.85712767 -12.16015625 25.16015625 C-11.61934465 23.85749561 -11.08034709 22.55408069 -10.54296875 21.25 C-10.26485352 20.57694824 -9.98673828 19.90389648 -9.70019531 19.21044922 C-7.95425025 14.88358536 -6.36534639 10.49587736 -4.76489258 6.11352539 C-2.55857265 0.13523111 -2.55857265 0.13523111 0 0 Z " fill="#6FB0CA" transform="translate(409.84765625,214.90234375)"/>
<path d="M0 0 C4.79752208 1.68102152 8.94600454 4.21983733 13.25 6.875 C13.9821875 7.30941406 14.714375 7.74382812 15.46875 8.19140625 C16.16484375 8.62066406 16.8609375 9.04992187 17.578125 9.4921875 C18.21137695 9.87745605 18.84462891 10.26272461 19.49707031 10.65966797 C21.39441914 12.35174806 21.68498232 13.50544991 22 16 C21.19426739 19.72505366 20.20403346 20.84986217 17.1015625 23.1328125 C15.95094367 23.81104424 14.79170589 24.4748313 13.625 25.125 C9.06487321 27.72729335 9.06487321 27.72729335 4.7734375 30.7421875 C3 32 3 32 0 32 C-0.56858135 28.84121472 -0.78189021 26.13267124 0 23 C2.19892456 20.95538593 4.39532014 19.61920159 7.03125 18.19140625 C7.6809375 17.79824219 8.330625 17.40507812 9 17 C9 16.34 9 15.68 9 15 C7.52320852 14.10630675 6.01779158 13.2596371 4.5 12.4375 C0.17757588 9.71146413 0.17757588 9.71146413 -0.59765625 6.60546875 C-0.56559748 4.34354429 -0.40048158 2.22489766 0 0 Z " fill="#7BC2D3" transform="translate(418,218)"/>
<path d="M0 0 C0.99 0.33 1.98 0.66 3 1 C4 3.5 4 3.5 5 6 C5.99 6.33 6.98 6.66 8 7 C9.16796875 9.625 9.16796875 9.625 10.1875 13 C10.53167969 14.093125 10.87585938 15.18625 11.23046875 16.3125 C13.1325726 25.42714991 11.39334048 32.10401745 8 40.6875 C7.63777344 41.69361328 7.27554687 42.69972656 6.90234375 43.73632812 C4.23786911 50.58718918 1.30517292 54.25135705 -5 58 C-5.99 58.66 -6.98 59.32 -8 60 C-8.99 59.67 -9.98 59.34 -11 59 C-10.34 59 -9.68 59 -9 59 C-7.89525246 56.93780459 -7.04015842 55.26504558 -6.6875 52.9375 C-6 51 -6 51 -3.5625 49.75 C-0.67981442 47.78133668 -0.4708883 47.17521038 0.375 43.9375 C1.35558194 40.22624622 1.35558194 40.22624622 0 38 C0.66 38 1.32 38 2 38 C2 36.35 2 34.7 2 33 C3.65 33.33 5.3 33.66 7 34 C8.07090792 30.49598928 8.16638464 27.21545784 8.1875 23.5625 C8.20167969 22.45003906 8.21585937 21.33757812 8.23046875 20.19140625 C7.99887988 16.98448915 7.47392067 14.8425613 6 12 C5.154375 11.34 4.30875 10.68 3.4375 10 C1 8 1 8 0.1875 5.4375 C0 3 0 3 0 0 Z " fill="#39ABD3" transform="translate(392,183)"/>
<path d="M0 0 C0.02700675 2.91672884 0.04684237 5.83320677 0.0625 8.75 C0.07087891 9.575 0.07925781 10.4 0.08789062 11.25 C0.09111328 12.04921875 0.09433594 12.8484375 0.09765625 13.671875 C0.10289307 14.4050293 0.10812988 15.13818359 0.11352539 15.89355469 C-0.00272156 18.05049803 -0.4625647 19.91401782 -1 22 C-1 22.99 -1 23.98 -1 25 C-10.24 25 -19.48 25 -29 25 C-29 24.67 -29 24.34 -29 24 C-28.42032471 24.00112793 -27.84064941 24.00225586 -27.2434082 24.00341797 C-24.59860966 23.99125798 -21.95666162 23.93355583 -19.3125 23.875 C-17.94448242 23.87886719 -17.94448242 23.87886719 -16.54882812 23.8828125 C-11.62469138 23.79409932 -11.62469138 23.79409932 -7.25073242 21.79541016 C-5.10634937 19.43525689 -4.06230224 17.35387674 -3.51171875 14.2265625 C-3.56972656 13.36804688 -3.62773437 12.50953125 -3.6875 11.625 C-3.73261719 10.75101563 -3.77773438 9.87703125 -3.82421875 8.9765625 C-3.88222656 8.32429687 -3.94023437 7.67203125 -4 7 C-9.65382246 4.70790982 -14.29818067 3.81177309 -20.38671875 3.68359375 C-21.20372757 3.66281265 -22.02073639 3.64203156 -22.86250305 3.62062073 C-25.47075034 3.55526921 -28.07909775 3.49630727 -30.6875 3.4375 C-32.45639054 3.39430108 -34.22527097 3.35068635 -35.99414062 3.30664062 C-40.32932597 3.19882044 -44.66458802 3.09964028 -49 3 C-49 9.93 -49 16.86 -49 24 C-49.33 24 -49.66 24 -50 24 C-50 16.74 -50 9.48 -50 2 C-47.48246094 1.93941406 -44.96492188 1.87882813 -42.37109375 1.81640625 C-39.91525672 1.75448263 -37.45945973 1.69115077 -35.00366211 1.62768555 C-33.30545665 1.5845478 -31.60721371 1.54285916 -29.90893555 1.50268555 C-27.45870702 1.44446656 -25.00866353 1.38092497 -22.55859375 1.31640625 C-21.43160316 1.29133751 -21.43160316 1.29133751 -20.28184509 1.26576233 C-13.46121057 1.07687647 -6.83542613 -0.13949849 0 0 Z " fill="#4A8BD1" transform="translate(368,192)"/>
<path d="M0 0 C8.85049489 -0.07007136 17.70089163 -0.12309715 26.55160522 -0.15543652 C30.66308518 -0.17097197 34.77437285 -0.19198305 38.88574219 -0.22631836 C42.86692138 -0.25935143 46.84791778 -0.27694362 50.82922363 -0.28463173 C52.33437979 -0.29009764 53.83952802 -0.30076603 55.34460449 -0.31719017 C67.38154934 -0.44310048 79.81226855 0.08192624 91 5 C87.74794841 5.96328543 84.76114248 6.16468233 81.375 6.1875 C79.93253906 6.20876953 79.93253906 6.20876953 78.4609375 6.23046875 C76 6 76 6 74 4 C73.01 4.66 72.02 5.32 71 6 C70.505 4.515 70.505 4.515 70 3 C55.51565174 1.86230302 41.02167023 1.67554424 26.5 1.4375 C24.01952551 1.39420763 21.53905668 1.35059034 19.05859375 1.30664062 C13.03912246 1.20068318 7.01959398 1.09872852 1 1 C1 2.98 1 4.96 1 7 C0.34 6.34 -0.32 5.68 -1 5 C-0.625 2.375 -0.625 2.375 0 0 Z " fill="#6E8BDC" transform="translate(290,114)"/>
<path d="M0 0 C2 3 2 3 2 6 C2.66 6.33 3.32 6.66 4 7 C3.34 7 2.68 7 2 7 C2.33 7.99 2.66 8.98 3 10 C3.99 8.35 4.98 6.7 6 5 C7 7 7 7 6.14453125 10.1875 C5.70885671 11.46121516 5.26445799 12.73197138 4.8125 14 C4.60302734 14.64195312 4.39355469 15.28390625 4.17773438 15.9453125 C3.17991222 18.77592965 2.45779223 20.66624894 -0.00390625 22.4609375 C-2.60170961 23.16249692 -4.43656776 22.71206451 -7 22 C-6.44147333 16.5632024 -5.06042383 12.0816633 -2.9375 7.0625 C-2.65583984 6.37865234 -2.37417969 5.69480469 -2.08398438 4.99023438 C-1.3964595 3.32386054 -0.69923825 1.66149273 0 0 Z " fill="#98BECE" transform="translate(401,232)"/>
<path d="M0 0 C0.33 0.99 0.66 1.98 1 3 C0.67 3.66 0.34 4.32 0 5 C2.44480079 4.81171228 2.44480079 4.81171228 5 4 C6.36020151 2.03241727 6.36020151 2.03241727 7 0 C7.66 0 8.32 0 9 0 C6.37175793 14.62824207 6.37175793 14.62824207 2 19 C-0.67058851 19.14115161 -3.32432238 19.04247107 -6 19 C-5.1016367 14.99350621 -3.74851515 11.1353054 -2.4375 7.25 C-2.20353516 6.55261719 -1.96957031 5.85523438 -1.72851562 5.13671875 C-1.15370621 3.4240213 -0.57703725 1.71194814 0 0 Z " fill="#8D6DD9" transform="translate(271,126)"/>
<path d="M0 0 C4.88036541 1.67491831 8.99152948 4.36791961 13.3125 7.125 C14.05306641 7.59292969 14.79363281 8.06085938 15.55664062 8.54296875 C17.37341968 9.69164196 19.18703037 10.84532369 21 12 C20.67 12.66 20.34 13.32 20 14 C16.28111761 13.49287967 13.26545761 12.88391785 10 11 C10.26676204 12.98491642 10.26676204 12.98491642 11 15 C11.99 15.33 12.98 15.66 14 16 C13.67 16.66 13.34 17.32 13 18 C10.4375 18.625 10.4375 18.625 8 19 C8.66 18.01 9.32 17.02 10 16 C9.278125 15.59910156 8.55625 15.19820312 7.8125 14.78515625 C0.32204594 10.19725314 0.32204594 10.19725314 -0.6640625 6.53125 C-0.62842473 4.27894293 -0.45005797 2.20528406 0 0 Z " fill="#95D4E0" transform="translate(418,218)"/>
<path d="M0 0 C0.69921875 1.74609375 0.69921875 1.74609375 1 4 C-0.29296875 6.03515625 -0.29296875 6.03515625 -2.1875 8.0625 C-2.79980469 8.73410156 -3.41210938 9.40570313 -4.04296875 10.09765625 C-5.92617693 11.92823985 -7.86258829 13.47869366 -10 15 C-9.44570313 15.23074219 -8.89140625 15.46148437 -8.3203125 15.69921875 C-2.32933105 18.39622642 -2.32933105 18.39622642 -0.5 21.75 C-0.335 22.4925 -0.17 23.235 0 24 C-0.66 24 -1.32 24 -2 24 C-1.67 24.99 -1.34 25.98 -1 27 C-2.32 27.33 -3.64 27.66 -5 28 C-5.20625 27.236875 -5.4125 26.47375 -5.625 25.6875 C-7.42070704 22.17770897 -9.43136312 21.47400219 -13 20 C-12.34517944 15.52539286 -11.59967285 11.23913305 -10 7 C-7.6875 5.3125 -7.6875 5.3125 -5 4 C-3.31522656 2.68962066 -1.64351457 1.36176922 0 0 Z " fill="#4BABD7" transform="translate(394,162)"/>
<path d="M0 0 C0.99 0.33 1.98 0.66 3 1 C3.66666667 2.66666667 4.33333333 4.33333333 5 6 C5.99 6.33 6.98 6.66 8 7 C11.5319772 14.93808924 13.75197854 23.63456572 11 32.0625 C10.67 32.701875 10.34 33.34125 10 34 C9.34 34 8.68 34 8 34 C7.67 34.66 7.34 35.32 7 36 C6.957279 34.33388095 6.95936168 32.66617115 7 31 C7.33 30.67 7.66 30.34 8 30 C8.12635423 27.91956287 8.17581705 25.83423788 8.1875 23.75 C8.20167969 22.61046875 8.21585937 21.4709375 8.23046875 20.296875 C8.00251995 17.03604807 7.50351688 14.88429769 6 12 C5.154375 11.34 4.30875 10.68 3.4375 10 C1 8 1 8 0.1875 5.4375 C0 3 0 3 0 0 Z " fill="#4EB3CE" transform="translate(392,183)"/>
<path d="M0 0 C0.66 0 1.32 0 2 0 C2 0.66 2 1.32 2 2 C2.99 2.33 3.98 2.66 5 3 C6.39543043 5.79086086 5.90230506 7.84592329 5.625 10.9375 C5.53476562 11.99839844 5.44453125 13.05929688 5.3515625 14.15234375 C5 17 5 17 4 20 C2.0625 20.75 2.0625 20.75 0 21 C-0.66 20.67 -1.32 20.34 -2 20 C-2 18.02 -2 16.04 -2 14 C-1.34 14 -0.68 14 0 14 C0 9.38 0 4.76 0 0 Z " fill="#1BA0CE" transform="translate(392,142)"/>
<path d="M0 0 C18.315 0.495 18.315 0.495 37 1 C37 1.33 37 1.66 37 2 C25.12 2 13.24 2 1 2 C1 8.6 1 15.2 1 22 C12.22 22 23.44 22 35 22 C35 22.33 35 22.66 35 23 C23.45 23 11.9 23 0 23 C-0.65838809 19.04967144 -1.10823893 16.20395206 -1 12.375 C-0.91574026 9.37324667 -1.16310789 6.88989305 -2 4 C-1.34 4 -0.68 4 0 4 C0 2.68 0 1.36 0 0 Z " fill="#576ABA" transform="translate(317,143)"/>
<path d="M0 0 C2.64 0 5.28 0 8 0 C7.28739906 4.28379643 5.93078264 8.25093853 4.4375 12.3125 C4.20353516 12.95767578 3.96957031 13.60285156 3.72851562 14.26757812 C3.15552993 15.84621219 2.57820536 17.42327026 2 19 C1.87625 18.38125 1.7525 17.7625 1.625 17.125 C1.12802644 14.80879168 1.12802644 14.80879168 -1 13 C-0.01 12.34 0.98 11.68 2 11 C2 10.01 2 9.02 2 8 C2.66 8 3.32 8 4 8 C3.67 7.01 3.34 6.02 3 5 C1.35 5.66 -0.3 6.32 -2 7 C-2.12375 8.134375 -2.2475 9.26875 -2.375 10.4375 C-2.58125 11.613125 -2.7875 12.78875 -3 14 C-3.99 14.495 -3.99 14.495 -5 15 C-4.5188509 9.22621075 -2.81532819 5.04140164 0 0 Z " fill="#86BDCE" transform="translate(408,215)"/>
<path d="M0 0 C9.57 0 19.14 0 29 0 C26 2 26 2 22.8125 1.625 C21.884375 1.41875 20.95625 1.2125 20 1 C19.67 1.66 19.34 2.32 19 3 C18.4225 2.814375 17.845 2.62875 17.25 2.4375 C14.79307475 1.95976454 13.35602466 2.24270636 11 3 C11 2.34 11 1.68 11 1 C7.78970286 2.10699901 6.99031023 3.01603825 5.1875 6 C4.795625 6.99 4.40375 7.98 4 9 C4.33 9.66 4.66 10.32 5 11 C4.67 11.66 4.34 12.32 4 13 C3.34 13 2.68 13 2 13 C1.690625 12.21625 1.38125 11.4325 1.0625 10.625 C0.07124962 8.07669872 0.07124962 8.07669872 -1 6 C-0.67 4.02 -0.34 2.04 0 0 Z " fill="#6B3EE4" transform="translate(291,115)"/>
<path d="M0 0 C7.75 0.75 7.75 0.75 10 3 C10.26991906 5.68839385 10.08737357 8.29141936 10 11 C6.42959697 10.34097701 3.82267745 8.83770842 0.75 6.9375 C-0.14203125 6.38964844 -1.0340625 5.84179688 -1.953125 5.27734375 C-2.96632812 4.64505859 -2.96632812 4.64505859 -4 4 C-3.01 3.67 -2.02 3.34 -1 3 C-0.67 2.01 -0.34 1.02 0 0 Z " fill="#865FD1" transform="translate(254,130)"/>
<path d="M0 0 C1.29671631 0.09958008 1.29671631 0.09958008 2.61962891 0.20117188 C4.99462891 3.20117188 4.99462891 3.20117188 6.61962891 6.20117188 C5.85650391 5.89179688 5.09337891 5.58242187 4.30712891 5.26367188 C-0.50121593 3.36269834 -4.6491865 2.99251062 -9.76708984 2.88476562 C-10.58409866 2.86398453 -11.40110748 2.84320343 -12.24287415 2.8217926 C-14.85112143 2.75644108 -17.45946885 2.69747914 -20.06787109 2.63867188 C-21.83676163 2.59547296 -23.60564206 2.55185822 -25.37451172 2.5078125 C-29.70969706 2.39999231 -34.04495911 2.30081215 -38.38037109 2.20117188 C-38.38037109 9.13117188 -38.38037109 16.06117188 -38.38037109 23.20117188 C-38.71037109 23.20117188 -39.04037109 23.20117188 -39.38037109 23.20117188 C-39.38037109 15.94117188 -39.38037109 8.68117187 -39.38037109 1.20117188 C-34.3633014 1.05797315 -29.34622241 0.91529376 -24.32910156 0.77392578 C-22.62401483 0.72572659 -20.91893654 0.67722783 -19.21386719 0.62841797 C-16.75636951 0.55812177 -14.29884302 0.4889198 -11.84130859 0.41992188 C-11.08482025 0.3980481 -10.32833191 0.37617432 -9.54891968 0.3536377 C-4.7725463 0.22725543 -4.7725463 0.22725543 0 0 Z " fill="#A9B2EB" transform="translate(357.38037109375,192.798828125)"/>
<path d="M0 0 C0.33 0 0.66 0 1 0 C1.06058594 1.09699219 1.12117188 2.19398438 1.18359375 3.32421875 C1.26804498 4.77865654 1.35269066 6.23308305 1.4375 7.6875 C1.47681641 8.40873047 1.51613281 9.12996094 1.55664062 9.87304688 C1.73973607 12.95750091 1.97151312 15.86203414 2.59765625 18.89453125 C3 21 3 21 2 23 C1.76725791 25.87910588 1.58027243 28.74146495 1.4375 31.625 C1.39431641 32.42679688 1.35113281 33.22859375 1.30664062 34.0546875 C1.20048543 36.0362511 1.09973145 38.01810271 1 40 C1.66 40.33 2.32 40.66 3 41 C4.0194119 41.98020375 5.02246356 42.97803008 6 44 C5.505 44.495 5.505 44.495 5 45 C3.35 45 1.7 45 0 45 C0 30.15 0 15.3 0 0 Z " fill="#7136E1" transform="translate(282,200)"/>
<path d="M0 0 C1.22589844 0.01353516 1.22589844 0.01353516 2.4765625 0.02734375 C3.10304688 0.03894531 3.72953125 0.05054688 4.375 0.0625 C-0.17957684 2.50245188 -3.87694124 3.18807958 -9.03613281 3.17602539 C-10.11695129 3.17594986 -11.19776978 3.17587433 -12.31134033 3.17579651 C-13.47187927 3.17063522 -14.63241821 3.16547394 -15.828125 3.16015625 C-17.02105164 3.1587413 -18.21397827 3.15732635 -19.4430542 3.15586853 C-23.25372829 3.15027038 -27.06434366 3.13771819 -30.875 3.125 C-33.45833248 3.11998476 -36.04166589 3.1154219 -38.625 3.11132812 C-44.95835337 3.10030155 -51.29167249 3.08356524 -57.625 3.0625 C-57.625 2.7325 -57.625 2.4025 -57.625 2.0625 C-56.67326401 2.0470388 -56.67326401 2.0470388 -55.70230103 2.03126526 C-49.11653038 1.92333865 -42.53090041 1.80872965 -35.9453125 1.69018555 C-33.48538141 1.64679221 -31.02541935 1.60512044 -28.56542969 1.56518555 C-25.03571216 1.50758943 -21.50615124 1.44386443 -17.9765625 1.37890625 C-16.87132233 1.36219376 -15.76608215 1.34548126 -14.62734985 1.32826233 C-13.60644257 1.30831711 -12.58553528 1.28837189 -11.53369141 1.26782227 C-10.63212311 1.25227798 -9.73055481 1.2367337 -8.80166626 1.22071838 C-5.64543787 0.9912972 -3.31450388 -0.04735006 0 0 Z " fill="#4B6CC8" transform="translate(376.625,242.9375)"/>
<path d="M0 0 C2.00720923 0.28674418 4.0085944 0.61866701 6 1 C6 1.33 6 1.66 6 2 C8.31 2.66 10.62 3.32 13 4 C12.67 5.65 12.34 7.3 12 9 C7.545 9.495 7.545 9.495 3 10 C3.33 8.68 3.66 7.36 4 6 C1.64573501 3.22877725 1.64573501 3.22877725 -1 1 C-0.67 0.67 -0.34 0.34 0 0 Z " fill="#5DC0D5" transform="translate(427,228)"/>
<path d="M0 0 C18.81 0.495 18.81 0.495 38 1 C38 1.33 38 1.66 38 2 C26.12 2 14.24 2 2 2 C2 9.26 2 16.52 2 24 C1.67 24 1.34 24 1 24 C0.67 16.08 0.34 8.16 0 0 Z " fill="#4F58C6" transform="translate(316,192)"/>
<path d="M0 0 C3.95906817 1.43308135 7.28718181 3.33141949 10.8125 5.625 C11.78832031 6.25664062 12.76414062 6.88828125 13.76953125 7.5390625 C14.50558594 8.02117187 15.24164063 8.50328125 16 9 C12.265625 10.1015625 12.265625 10.1015625 9.875 9.1875 C7.57369581 7.73000735 6.22304147 6.44608294 5 4 C4.01 4 3.02 4 2 4 C2.66 6.31 3.32 8.62 4 11 C2.68 10.34 1.36 9.68 0 9 C0 6.03 0 3.06 0 0 Z " fill="#99CCD4" transform="translate(418,218)"/>
<path d="M0 0 C0 1.98 0 3.96 0 6 C0.66 6 1.32 6 2 6 C2 6.99 2 7.98 2 9 C-2.455 8.01 -2.455 8.01 -7 7 C-7 5.02 -7 3.04 -7 1 C-4.53721199 -0.231394 -2.7204945 -0.07159196 0 0 Z " fill="#7735DD" transform="translate(250,121)"/>
<path d="M0 0 C1.258125 -0.020625 2.51625 -0.04125 3.8125 -0.0625 C4.52019531 -0.07410156 5.22789062 -0.08570313 5.95703125 -0.09765625 C8 0 8 0 11 1 C12.1875 3.0625 12.1875 3.0625 13 5 C12.34 5 11.68 5 11 5 C11.33 5.99 11.66 6.98 12 8 C10.68 8.33 9.36 8.66 8 9 C7.690625 7.8553125 7.690625 7.8553125 7.375 6.6875 C5.57929296 3.17770897 3.56863688 2.47400219 0 1 C0 0.67 0 0.34 0 0 Z " fill="#279BCE" transform="translate(381,181)"/>
<path d="M0 0 C0.66 0 1.32 0 2 0 C2 0.66 2 1.32 2 2 C2.66 2 3.32 2 4 2 C4 2.99 4 3.98 4 5 C3.01 5.495 3.01 5.495 2 6 C0.9590934 7.64142963 -0.04504326 9.30712215 -1 11 C-2.32 10.67 -3.64 10.34 -5 10 C-4.34 8.02 -3.68 6.04 -3 4 C-2.34 4 -1.68 4 -1 4 C-0.67 2.68 -0.34 1.36 0 0 Z " fill="#6237D4" transform="translate(276,121)"/>
<path d="M0 0 C-1.24669004 3.74007011 -2.68513508 4.51247157 -5.875 6.75 C-7.20144531 7.70132813 -7.20144531 7.70132813 -8.5546875 8.671875 C-9.36164063 9.11015625 -10.16859375 9.5484375 -11 10 C-11.99 9.67 -12.98 9.34 -14 9 C-13.34 9 -12.68 9 -12 9 C-10.58622659 6.36095629 -9.62759865 3.92879371 -9 1 C-2.25 0 -2.25 0 0 0 Z " fill="#5FB0DC" transform="translate(395,233)"/>
<path d="M0 0 C0.66 1.32 1.32 2.64 2 4 C3.32 4 4.64 4 6 4 C7.2077558 7.62326739 6.54311128 8.64146369 5 12 C4.67 11.01 4.34 10.02 4 9 C3.34 9 2.68 9 2 9 C2 8.34 2 7.68 2 7 C1.01 7.495 1.01 7.495 0 8 C-0.33 8.99 -0.66 9.98 -1 11 C-1.99 11.33 -2.98 11.66 -4 12 C-2.66666667 8 -1.33333333 4 0 0 Z " fill="#8466D9" transform="translate(276,114)"/>
<path d="M0 0 C0.99 0 1.98 0 3 0 C2.67 1.32 2.34 2.64 2 4 C1.34 4 0.68 4 0 4 C0.33 5.32 0.66 6.64 1 8 C0.360625 8.268125 -0.27875 8.53625 -0.9375 8.8125 C-3.33131686 9.88667752 -3.33131686 9.88667752 -4 13 C-4.33 13 -4.66 13 -5 13 C-4.67 9.7 -4.34 6.4 -4 3 C-3.34 3 -2.68 3 -2 3 C-1.67 2.34 -1.34 1.68 -1 1 C-0.67 0.67 -0.34 0.34 0 0 Z " fill="#6CB4D0" transform="translate(410,219)"/>
<path d="M0 0 C9.57 0 19.14 0 29 0 C26 2 26 2 22.8125 1.625 C21.884375 1.41875 20.95625 1.2125 20 1 C19.67 1.66 19.34 2.32 19 3 C18.4225 2.814375 17.845 2.62875 17.25 2.4375 C14.79307475 1.95976454 13.35602466 2.24270636 11 3 C11 2.34 11 1.68 11 1 C9.9275 1.165 8.855 1.33 7.75 1.5 C4 2 4 2 0 2 C0 1.34 0 0.68 0 0 Z " fill="#5D46D3" transform="translate(291,115)"/>
<path d="M0 0 C1.98 0 3.96 0 6 0 C5.34 2.97 4.68 5.94 4 9 C3.67 8.34 3.34 7.68 3 7 C1.68 7 0.36 7 -1 7 C-0.67 4.69 -0.34 2.38 0 0 Z " fill="#5F3FD1" transform="translate(280,106)"/>
<path d="M0 0 C0.99 0 1.98 0 3 0 C5.1875 3 5.1875 3 7 6 C4 8 4 8 1.3125 7.625 C0.549375 7.41875 -0.21375 7.2125 -1 7 C-0.67 4.69 -0.34 2.38 0 0 Z " fill="#8AACC4" transform="translate(395,247)"/>
<path d="M0 0 C0 0.66 0 1.32 0 2 C-2.66666667 3.33333333 -5.33333333 4.66666667 -8 6 C-9.32 4.68 -10.64 3.36 -12 2 C-7.52828892 -0.66173278 -5.06604612 -1.3268216 0 0 Z " fill="#4B8BD9" transform="translate(364,162)"/>
<path d="M0 0 C2.69082872 0.17635452 5.32851446 0.61835921 8 1 C7.67 2.98 7.34 4.96 7 7 C1.33846154 5.52307692 1.33846154 5.52307692 -0.375 2.875 C-0.58125 2.25625 -0.7875 1.6375 -1 1 C-0.67 0.67 -0.34 0.34 0 0 Z " fill="#773FE1" transform="translate(254,130)"/>
<path d="M0 0 C0.99 0.33 1.98 0.66 3 1 C3.66666667 2.66666667 4.33333333 4.33333333 5 6 C5.99 6.33 6.98 6.66 8 7 C8.6875 9.0625 8.6875 9.0625 9 11 C8.401875 10.484375 7.80375 9.96875 7.1875 9.4375 C6.465625 8.963125 5.74375 8.48875 5 8 C4.01 8.33 3.02 8.66 2 9 C0 3.375 0 3.375 0 0 Z " fill="#55BBDE" transform="translate(392,183)"/>
<path d="M0 0 C0.66 0.33 1.32 0.66 2 1 C2.77811718 4.81984796 3.24386556 7.26840331 2 11 C0.02 11 -1.96 11 -4 11 C-4.33 10.34 -4.66 9.68 -5 9 C-3.35 8.67 -1.7 8.34 0 8 C-0.66 6.68 -1.32 5.36 -2 4 C-1.34 3.34 -0.68 2.68 0 2 C0 1.34 0 0.68 0 0 Z " fill="#6A3DD1" transform="translate(271,134)"/>
<path d="M0 0 C0 1.32 0 2.64 0 4 C-1.98 4 -3.96 4 -6 4 C-5.01 5.485 -5.01 5.485 -4 7 C-5.32 6.67 -6.64 6.34 -8 6 C-8 4.68 -8 3.36 -8 2 C-7.34 2 -6.68 2 -6 2 C-6 1.34 -6 0.68 -6 0 C-2.25 -1.125 -2.25 -1.125 0 0 Z " fill="#7337DF" transform="translate(260,115)"/>
<path d="M0 0 C2 3 2 3 2 6 C2.66 6.33 3.32 6.66 4 7 C3.34 7 2.68 7 2 7 C1.67 8.32 1.34 9.64 1 11 C0.01 10.67 -0.98 10.34 -2 10 C-2.17942163 6.05272412 -2.09350689 3.4019487 0 0 Z " fill="#88BACC" transform="translate(401,232)"/>
<path d="M0 0 C0.66 0.33 1.32 0.66 2 1 C1.67 8.26 1.34 15.52 1 23 C-1.33231383 19.50152926 -1.18951999 18.17286691 -1.0625 14.0625 C-0.96066929 10.48957014 -0.93451056 7.42773736 -2 4 C-1.34 4 -0.68 4 0 4 C0 2.68 0 1.36 0 0 Z " fill="#5950CE" transform="translate(317,143)"/>
<path d="M0 0 C1.32 0.33 2.64 0.66 4 1 C3.34 1.66 2.68 2.32 2 3 C2.99 4.485 2.99 4.485 4 6 C2.824375 6.4640625 2.824375 6.4640625 1.625 6.9375 C-0.92330128 7.92875038 -0.92330128 7.92875038 -3 9 C-2.30058404 5.85262818 -1.23921302 2.97411124 0 0 Z " fill="#8055DD" transform="translate(268,136)"/>
<path d="M0 0 C-0.1141866 1.93816735 -0.24173423 3.87555099 -0.375 5.8125 C-0.44460938 6.89144531 -0.51421875 7.97039062 -0.5859375 9.08203125 C-1 12 -1 12 -3 15 C-2.98839844 14.39671875 -2.97679687 13.7934375 -2.96484375 13.171875 C-2.95582031 12.37265625 -2.94679688 11.5734375 -2.9375 10.75 C-2.92589844 9.96109375 -2.91429687 9.1721875 -2.90234375 8.359375 C-2.99614694 6.09308998 -3.36758937 4.1711105 -4 2 C-1 0 -1 0 0 0 Z " fill="#2EB0D1" transform="translate(398,147)"/>
<path d="M0 0 C2.97 0 5.94 0 9 0 C7.375 8.5 7.375 8.5 4 13 C4.66 9.37 5.32 5.74 6 2 C4.35 1.67 2.7 1.34 1 1 C0.67 1.66 0.34 2.32 0 3 C0 2.01 0 1.02 0 0 Z " fill="#A999DC" transform="translate(279,105)"/>
<path d="M0 0 C1.32 0.33 2.64 0.66 4 1 C3.01 1.66 2.02 2.32 1 3 C3.64 4.32 6.28 5.64 9 7 C6.00468461 7.99843846 4.82744268 8.00732761 1.8125 7.5625 C0.554375 7.376875 -0.70375 7.19125 -2 7 C-1.34 4.69 -0.68 2.38 0 0 Z " fill="#66B0DA" transform="translate(383,174)"/>
<path d="M0 0 C-0.99 0.33 -1.98 0.66 -3 1 C-3 1.66 -3 2.32 -3 3 C-8.94 2.67 -14.88 2.34 -21 2 C-21 1.67 -21 1.34 -21 1 C-18.43761495 0.83138242 -15.87511576 0.66504227 -13.3125 0.5 C-12.59126953 0.45230469 -11.87003906 0.40460938 -11.12695312 0.35546875 C-7.41171286 0.11796481 -3.72305126 -0.05874637 0 0 Z " fill="#3F6FD6" transform="translate(357,165)"/>
<path d="M0 0 C0.66 0 1.32 0 2 0 C4.43160605 3.36683915 5 4.73350364 5 9 C3 8.33333333 1 7.66666667 -1 7 C-0.67 4.69 -0.34 2.38 0 0 Z " fill="#7B54D8" transform="translate(288,119)"/>
<path d="M0 0 C4.89672424 2.17632189 8.98947371 4.88229672 11 10 C10.01 10 9.02 10 8 10 C8 9.01 8 8.02 8 7 C5.69 6.67 3.38 6.34 1 6 C0.67 4.02 0.34 2.04 0 0 Z " fill="#6EB8DA" transform="translate(381,120)"/>
<path d="M0 0 C0.66 0.66 1.32 1.32 2 2 C0.78310457 6.02511566 -0.49453762 9.59257117 -3 13 C-3.99 13 -4.98 13 -6 13 C-5.67 11.02 -5.34 9.04 -5 7 C-4.01 7.33 -3.02 7.66 -2 8 C-1.34 5.36 -0.68 2.72 0 0 Z " fill="#7CB2C1" transform="translate(408,229)"/>
<path d="M0 0 C2.375 0.1875 2.375 0.1875 5 1 C6.3125 3.5625 6.3125 3.5625 7 6 C5.35 6.33 3.7 6.66 2 7 C0.5393715 4.35261084 0 3.10551666 0 0 Z " fill="#69BED3" transform="translate(420,222)"/>
<path d="M0 0 C2.20052594 2.20052594 2.3929392 3.05141896 3 6 C3.185625 6.7425 3.37125 7.485 3.5625 8.25 C3.7790625 9.11625 3.7790625 9.11625 4 10 C3.01 10.33 2.02 10.66 1 11 C1 11.66 1 12.32 1 13 C0.34 13 -0.32 13 -1 13 C-0.67 8.71 -0.34 4.42 0 0 Z " fill="#3580CC" transform="translate(361,147)"/>
<path d="M0 0 C0.66 0 1.32 0 2 0 C2.33 2.31 2.66 4.62 3 7 C1.02 7.33 -0.96 7.66 -3 8 C-3.33 7.34 -3.66 6.68 -4 6 C-3.01 5.67 -2.02 5.34 -1 5 C-0.67 3.35 -0.34 1.7 0 0 Z " fill="#229BD2" transform="translate(392,226)"/>
<path d="M0 0 C1.79236067 0.47656412 3.58386897 0.95633498 5.375 1.4375 C6.37273437 1.70433594 7.37046875 1.97117188 8.3984375 2.24609375 C11 3 11 3 13 4 C12.67 4.66 12.34 5.32 12 6 C8.31388251 5.49734762 5.15961069 5.0311783 2 3 C1.34 2.01 0.68 1.02 0 0 Z M-1 2 C1 3 1 3 1 3 Z " fill="#81CADC" transform="translate(426,226)"/>
<path d="M0 0 C4.71403788 0.47939368 8.66579301 0.96834048 13 3 C9.59750576 4.04692131 6.5483045 4.3774792 3 4 C1.125 2 1.125 2 0 0 Z " fill="#64A2D5" transform="translate(368,116)"/>
<path d="M0 0 C0.99 0.33 1.98 0.66 3 1 C2.01 4.3 1.02 7.6 0 11 C-0.33 9.68 -0.66 8.36 -1 7 C-1.66 6.34 -2.32 5.68 -3 5 C-2.01 4.34 -1.02 3.68 0 3 C0 2.01 0 1.02 0 0 Z " fill="#9ACEDC" transform="translate(410,223)"/>
<path d="M0 0 C5.94 3.465 5.94 3.465 12 7 C8 8 8 8 5.875 7.1875 C2.62881752 5.13158443 1.77611503 3.55223006 0 0 Z " fill="#A3D5DF" transform="translate(422,220)"/>
<path d="M0 0 C2.75 -0.375 2.75 -0.375 6 0 C8.375 3 8.375 3 10 6 C6.40992874 4.66654496 3.20429093 3.1056769 0 1 C0 0.67 0 0.34 0 0 Z " fill="#75A2E0" transform="translate(354,193)"/>
<path d="M0 0 C-1.62339805 1.70884005 -3.29319053 3.37446717 -5 5 C-5.66 5 -6.32 5 -7 5 C-7 4.34 -7 3.68 -7 3 C-7.66 3 -8.32 3 -9 3 C-9 2.34 -9 1.68 -9 1 C-5.8035914 -0.06546953 -3.34252724 -0.07427838 0 0 Z " fill="#87CDDC" transform="translate(439,237)"/>
<path d="M0 0 C1.10844919 3.32534757 0.84454356 5.62182575 0 9 C-0.66 9 -1.32 9 -2 9 C-2 9.99 -2 10.98 -2 12 C-2.66 12 -3.32 12 -4 12 C-3.33501617 7.61110675 -1.81242323 4.0188515 0 0 Z " fill="#8C69DC" transform="translate(285,128)"/>
<path d="M0 0 C0.33 0.66 0.66 1.32 1 2 C0.34 2 -0.32 2 -1 2 C-1.33 3.32 -1.66 4.64 -2 6 C-4.64 6.33 -7.28 6.66 -10 7 C-7.2180632 3.72713318 -3.72045933 2.03572303 0 0 Z " fill="#A27BE0" transform="translate(253,115)"/>
<path d="M0 0 C-2.96178773 1.67110042 -5.37071192 2.32682752 -8.75 2.625 C-9.54921875 2.69976562 -10.3484375 2.77453125 -11.171875 2.8515625 C-11.77515625 2.90054688 -12.3784375 2.94953125 -13 3 C-9.21656826 -0.94792877 -5.07874402 -0.29300446 0 0 Z " fill="#649FD4" transform="translate(381,243)"/>
<path d="M0 0 C2.64 0.33 5.28 0.66 8 1 C8.66 2.65 9.32 4.3 10 6 C6.00499382 4.6302836 3.19990508 2.74277578 0 0 Z " fill="#8C65DA" transform="translate(250,133)"/>
<path d="M0 0 C-0.66 0 -1.32 0 -2 0 C-2 0.66 -2 1.32 -2 2 C-2.66 2 -3.32 2 -4 2 C-4.66 4.31 -5.32 6.62 -6 9 C-7.15941038 5.52176885 -6.70820884 3.54104422 -6 0 C-3 -1 -3 -1 0 0 Z " fill="#6B3BDF" transform="translate(292,126)"/>
<path d="M0 0 C1.67542976 0.28604898 3.34385343 0.61781233 5 1 C5.33 2.32 5.66 3.64 6 5 C3.625 4.6875 3.625 4.6875 1 4 C0.34 3.01 -0.32 2.02 -1 1 C-0.67 0.67 -0.34 0.34 0 0 Z " fill="#2C80D9" transform="translate(361,192)"/>
<path d="M0 0 C2.31 0 4.62 0 7 0 C7.33 1.65 7.66 3.3 8 5 C5.36 3.68 2.72 2.36 0 1 C0 0.67 0 0.34 0 0 Z " fill="#2395D6" transform="translate(381,181)"/>
<path d="M0 0 C2.475 0.99 2.475 0.99 5 2 C5 5.3 5 8.6 5 12 C4.67 12 4.34 12 4 12 C3.87882812 11.38511719 3.75765625 10.77023438 3.6328125 10.13671875 C3.46523438 9.32847656 3.29765625 8.52023438 3.125 7.6875 C2.96257812 6.88699219 2.80015625 6.08648437 2.6328125 5.26171875 C2.05521001 2.74698882 2.05521001 2.74698882 0 0 Z " fill="#80B0E1" transform="translate(356,146)"/>
<path d="M0 0 C1.95216435 3.90432869 2.50639991 6.72213252 3 11 C2.01 10.67 1.02 10.34 0 10 C0 6.7 0 3.4 0 0 Z " fill="#4DB0CF" transform="translate(394,134)"/>
<path d="M0 0 C1.32 0.33 2.64 0.66 4 1 C4.33 2.32 4.66 3.64 5 5 C4.34 5 3.68 5 3 5 C2.67 5.99 2.34 6.98 2 8 C1.33333333 5.33333333 0.66666667 2.66666667 0 0 Z " fill="#2D8DCA" transform="translate(378,120)"/>
<path d="M0 0 C1.65 1.32 3.3 2.64 5 4 C2.525 5.485 2.525 5.485 0 7 C-1.125 2.25 -1.125 2.25 0 0 Z " fill="#9769E9" transform="translate(251,119)"/>
<path d="M0 0 C1 2 2 4 3 6 C2.67 6.66 2.34 7.32 2 8 C1.01 7.67 0.02 7.34 -1 7 C-0.67 4.69 -0.34 2.38 0 0 Z " fill="#A1BAC4" transform="translate(395,247)"/>
<path d="M0 0 C1.98 0.495 1.98 0.495 4 1 C2.515 3.475 2.515 3.475 1 6 C0.34 5.67 -0.32 5.34 -1 5 C-0.67 3.35 -0.34 1.7 0 0 Z " fill="#6938E2" transform="translate(274,126)"/>
<path d="M0 0 C1.98 0.99 1.98 0.99 4 2 C4 3.32 4 4.64 4 6 C2.68 5.67 1.36 5.34 0 5 C0 3.35 0 1.7 0 0 Z " fill="#6844D5" transform="translate(277,113)"/>
<path d="M0 0 C0.99 0 1.98 0 3 0 C4.125 4.75 4.125 4.75 3 7 C2.34 7 1.68 7 1 7 C0.67 4.69 0.34 2.38 0 0 Z " fill="#3B73D9" transform="translate(351,217)"/>
<path d="M0 0 C1.32 0.33 2.64 0.66 4 1 C3.6875 2.9375 3.6875 2.9375 3 5 C2.01 5.33 1.02 5.66 0 6 C0 4.02 0 2.04 0 0 Z " fill="#2296CC" transform="translate(384,169)"/>
</svg>
